<svg xmlns="http://www.w3.org/2000/svg" xmlns:xlink="http://www.w3.org/1999/xlink" width="500" zoomAndPan="magnify" viewBox="0 0 375 374.999991" height="500" preserveAspectRatio="xMidYMid meet" version="1.0"><defs><clipPath id="4936de574c"><path d="M 80 37.5 L 296 37.5 L 296 337.5 L 80 337.5 Z M 80 37.5 " clip-rule="nonzero"/></clipPath><clipPath id="0bd37a579c"><path d="M 79 37.5 L 296 37.5 L 296 337.5 L 79 337.5 Z M 79 37.5 " clip-rule="nonzero"/></clipPath><clipPath id="712817decb"><path d="M 82 175 L 298.5 175 L 298.5 283 L 82 283 Z M 82 175 " clip-rule="nonzero"/></clipPath><clipPath id="ed66809347"><path d="M 76.5 124 L 298.5 124 L 298.5 284 L 76.5 284 Z M 76.5 124 " clip-rule="nonzero"/></clipPath></defs><g clip-path="url(#4936de574c)"><path fill="#1f9230" d="M 206.226562 63.257812 L 206.226562 134.894531 L 203.984375 136.226562 L 159.621094 110.652344 L 159.621094 39.015625 L 203.925781 64.589844 Z M 206.105469 63.316406 L 161.804688 37.742188 L 159.621094 39.015625 L 203.925781 64.589844 Z M 293.378906 122.894531 L 293.378906 178.410156 C 293.378906 179.5 292.953125 180.347656 292.289062 180.773438 C 291.984375 180.953125 291.621094 181.015625 291.257812 181.015625 C 290.773438 181.015625 290.226562 180.832031 289.621094 180.53125 L 282.105469 176.167969 L 270.832031 169.621094 L 259.5625 163.074219 L 248.289062 156.53125 L 225.742188 143.4375 L 217.015625 138.410156 C 215.136719 137.316406 213.683594 134.773438 213.683594 132.652344 L 213.683594 77.257812 C 213.683594 76.167969 214.105469 75.316406 214.773438 74.894531 C 215.5 74.46875 216.410156 74.53125 217.378906 75.136719 L 224.894531 79.5 L 236.105469 85.984375 L 247.378906 92.53125 L 258.652344 99.074219 L 269.925781 105.621094 L 281.195312 112.167969 L 289.925781 117.195312 C 291.863281 118.226562 293.378906 120.710938 293.378906 122.894531 Z M 230.832031 120.652344 L 236.105469 123.683594 L 236.105469 112.046875 L 230.832031 109.015625 L 225.5625 105.984375 L 225.5625 117.621094 Z M 242.105469 127.136719 L 247.378906 130.167969 L 247.378906 118.53125 L 236.832031 112.46875 L 236.832031 124.105469 Z M 253.4375 133.683594 L 258.710938 136.710938 L 258.710938 125.074219 L 253.4375 122.046875 L 248.167969 119.015625 L 248.167969 130.652344 Z M 264.710938 140.167969 L 269.984375 143.195312 L 269.984375 131.5625 L 259.4375 125.5 L 259.4375 137.136719 Z M 276.046875 146.710938 L 281.316406 149.742188 L 281.316406 138.105469 L 276.046875 135.074219 L 270.773438 132.046875 L 270.773438 143.683594 Z M 276.046875 122.53125 L 270.773438 119.5 L 270.773438 131.136719 L 276.046875 134.167969 L 281.316406 137.195312 L 281.316406 125.5625 Z M 264.710938 115.984375 L 259.4375 112.953125 L 259.4375 124.589844 L 269.984375 130.652344 L 269.984375 119.015625 Z M 253.4375 109.5 L 248.167969 106.46875 L 248.167969 118.105469 L 253.4375 121.136719 L 258.710938 124.167969 L 258.710938 112.53125 Z M 242.105469 102.953125 L 236.832031 99.925781 L 236.832031 111.5625 L 242.105469 114.589844 L 247.378906 117.621094 L 247.378906 105.984375 Z M 230.832031 96.410156 L 225.5625 93.378906 L 225.5625 105.015625 L 230.832031 108.046875 L 236.105469 111.074219 L 236.105469 99.4375 Z M 230.832031 133.195312 L 236.105469 136.226562 L 236.105469 124.589844 L 230.832031 121.5625 L 225.5625 118.53125 L 225.5625 130.167969 Z M 242.105469 139.683594 L 247.378906 142.710938 L 247.378906 131.074219 L 242.105469 128.046875 L 236.832031 125.015625 L 236.832031 136.652344 Z M 253.4375 146.226562 L 258.710938 149.257812 L 258.710938 137.621094 L 253.4375 134.589844 L 248.167969 131.5625 L 248.167969 143.195312 Z M 264.710938 152.773438 L 269.984375 155.804688 L 269.984375 144.167969 L 259.4375 138.105469 L 259.4375 149.742188 Z M 276.046875 159.257812 L 281.316406 162.289062 L 281.316406 150.652344 L 276.046875 147.621094 L 270.773438 144.589844 L 270.773438 156.226562 Z M 270.773438 106.953125 L 270.773438 118.589844 L 276.046875 121.621094 L 281.316406 124.652344 L 281.316406 113.015625 Z M 259.5 100.410156 L 259.5 112.046875 L 264.773438 115.074219 L 270.046875 118.105469 L 270.046875 106.46875 Z M 248.167969 93.863281 L 248.167969 105.5 L 253.4375 108.53125 L 258.710938 111.5625 L 258.710938 99.925781 Z M 236.894531 87.378906 L 236.894531 99.015625 L 242.167969 102.046875 L 247.4375 105.074219 L 247.4375 93.4375 Z M 225.621094 80.832031 L 225.621094 92.46875 L 236.167969 98.53125 L 236.167969 86.894531 Z M 214.289062 85.984375 L 219.5625 89.015625 L 224.832031 92.046875 L 224.832031 80.410156 L 216.894531 75.804688 C 216.167969 75.378906 215.5 75.316406 215.074219 75.5625 C 214.589844 75.804688 214.347656 76.410156 214.347656 77.257812 L 214.347656 85.984375 Z M 214.289062 98.53125 L 219.5625 101.5625 L 224.832031 104.589844 L 224.832031 92.953125 L 219.5625 89.925781 L 214.289062 86.894531 Z M 214.289062 111.074219 L 219.5625 114.105469 L 224.832031 117.136719 L 224.832031 105.5 L 219.5625 102.46875 L 214.289062 99.4375 Z M 214.289062 123.621094 L 219.5625 126.652344 L 224.832031 129.683594 L 224.832031 118.046875 L 219.5625 115.015625 L 214.289062 111.984375 Z M 224.773438 142.226562 L 224.773438 130.589844 L 219.5 127.5625 L 214.226562 124.53125 L 214.226562 132.773438 C 214.226562 134.652344 215.5625 136.894531 217.195312 137.863281 Z M 236.105469 148.773438 L 236.105469 137.136719 L 230.832031 134.105469 L 225.5625 131.074219 L 225.5625 142.710938 Z M 247.378906 155.316406 L 247.378906 143.683594 L 236.832031 137.621094 L 236.832031 149.257812 Z M 258.652344 161.804688 L 258.652344 150.167969 L 248.105469 144.105469 L 248.105469 155.742188 Z M 269.984375 168.347656 L 269.984375 156.710938 L 264.710938 153.683594 L 259.4375 150.652344 L 259.4375 162.289062 Z M 281.257812 174.832031 L 281.257812 163.195312 L 275.984375 160.167969 L 270.710938 157.136719 L 270.710938 168.773438 Z M 292.53125 169.742188 L 287.257812 166.710938 L 281.984375 163.683594 L 281.984375 175.316406 L 289.925781 179.925781 C 290.652344 180.347656 291.316406 180.410156 291.742188 180.167969 C 292.226562 179.925781 292.46875 179.316406 292.46875 178.46875 L 292.46875 169.742188 Z M 292.53125 157.195312 L 287.257812 154.167969 L 281.984375 151.136719 L 281.984375 162.773438 L 287.257812 165.804688 L 292.53125 168.832031 Z M 292.53125 144.652344 L 281.984375 138.589844 L 281.984375 150.226562 L 292.53125 156.289062 Z M 292.53125 132.046875 L 281.984375 125.984375 L 281.984375 137.621094 L 292.53125 143.683594 Z M 287.316406 128.105469 L 292.589844 131.136719 L 292.589844 122.894531 C 292.589844 121.015625 291.257812 118.773438 289.621094 117.804688 L 282.105469 113.4375 L 282.105469 125.074219 Z M 216.832031 337.316406 C 216.710938 337.316406 216.589844 337.316406 216.46875 337.316406 C 214.710938 337.136719 213.4375 335.5 213.683594 333.742188 L 224.894531 238.710938 L 283.863281 204.652344 L 295.5 290.105469 C 295.742188 291.863281 294.53125 293.5 292.773438 293.742188 C 291.015625 293.984375 289.378906 292.773438 289.136719 291.015625 L 278.773438 215.015625 L 230.894531 242.652344 L 219.984375 334.46875 C 219.804688 336.105469 218.410156 337.316406 216.832031 337.316406 Z M 86.53125 258.410156 L 97.5625 164.953125 C 97.742188 163.195312 96.53125 161.621094 94.773438 161.378906 C 93.015625 161.195312 91.4375 162.410156 91.195312 164.167969 L 80.167969 257.621094 C 79.984375 259.378906 81.195312 260.953125 82.953125 261.195312 C 83.074219 261.195312 83.195312 261.195312 83.316406 261.195312 C 84.953125 261.195312 86.347656 260.046875 86.53125 258.410156 Z M 86.53125 258.410156 " fill-opacity="1" fill-rule="nonzero"/></g><path fill="#1b221c" d="M 244.167969 145.621094 L 221.804688 132.710938 L 221.804688 96.105469 L 244.167969 109.015625 Z M 244.167969 145.621094 " fill-opacity="1" fill-rule="nonzero"/><path fill="#f6fed8" d="M 162.953125 45.378906 L 200.710938 67.195312 L 200.710938 129.863281 L 162.953125 108.046875 Z M 271.195312 109.683594 L 258.289062 102.226562 L 258.289062 125.984375 L 271.195312 133.4375 Z M 271.195312 161.195312 L 258.289062 153.742188 L 258.289062 129.984375 L 271.195312 137.4375 Z M 271.195312 161.195312 " fill-opacity="1" fill-rule="nonzero"/><path fill="#399d4e" d="M 288.953125 159.195312 L 276.046875 151.742188 L 276.046875 127.984375 L 288.953125 135.4375 Z M 288.953125 159.195312 " fill-opacity="1" fill-rule="nonzero"/><g clip-path="url(#0bd37a579c)"><path fill="#3a5843" d="M 216.832031 337.5 C 216.710938 337.5 216.589844 337.5 216.410156 337.5 C 214.53125 337.257812 213.195312 335.5625 213.4375 333.742188 L 224.652344 238.589844 L 224.710938 238.53125 L 283.925781 204.347656 L 295.621094 290.105469 C 295.863281 291.984375 294.589844 293.683594 292.710938 293.925781 C 290.832031 294.167969 289.136719 292.894531 288.894531 291.015625 L 278.589844 215.316406 L 231.015625 242.773438 L 220.167969 334.46875 C 219.984375 336.226562 218.53125 337.5 216.832031 337.5 Z M 225.015625 238.773438 L 213.804688 333.742188 C 213.621094 335.378906 214.773438 336.894531 216.46875 337.074219 C 218.167969 337.257812 219.621094 336.046875 219.804688 334.410156 L 230.652344 242.46875 L 230.710938 242.410156 L 278.894531 214.589844 L 289.316406 290.953125 C 289.5625 292.589844 291.074219 293.742188 292.710938 293.5 C 294.347656 293.257812 295.5 291.742188 295.257812 290.105469 L 283.621094 204.953125 Z M 83.378906 261.4375 C 83.257812 261.4375 83.136719 261.4375 82.953125 261.4375 C 81.074219 261.195312 79.742188 259.5 79.984375 257.683594 L 90.953125 164.167969 C 91.074219 163.257812 91.5 162.46875 92.226562 161.863281 C 92.953125 161.316406 93.863281 161.074219 94.710938 161.136719 C 96.589844 161.378906 97.925781 163.074219 97.683594 164.894531 L 86.773438 258.410156 C 86.53125 260.105469 85.074219 261.4375 83.378906 261.4375 Z M 94.347656 161.5625 C 93.683594 161.5625 93.015625 161.804688 92.46875 162.226562 C 91.863281 162.710938 91.4375 163.4375 91.316406 164.226562 L 80.347656 257.683594 C 80.167969 259.316406 81.316406 260.832031 83.015625 261.015625 C 84.652344 261.195312 86.167969 259.984375 86.347656 258.347656 L 97.378906 164.894531 C 97.5625 163.257812 96.410156 161.742188 94.710938 161.5625 C 94.589844 161.5625 94.46875 161.5625 94.347656 161.5625 Z M 200.894531 130.226562 L 162.773438 108.226562 L 162.773438 45.015625 L 200.894531 67.015625 Z M 163.136719 107.925781 L 200.46875 129.5 L 200.46875 67.316406 L 163.136719 45.742188 Z M 206.410156 63.257812 L 161.804688 37.5 L 159.4375 38.894531 L 159.4375 110.773438 L 203.925781 136.46875 L 206.410156 135.074219 Z M 161.804688 37.984375 L 205.683594 63.316406 L 203.925781 64.347656 L 160.046875 39.015625 Z M 159.863281 110.53125 L 159.863281 39.316406 L 203.742188 64.652344 L 203.742188 135.863281 Z M 205.984375 134.832031 L 204.105469 135.925781 L 204.105469 64.710938 L 205.984375 63.621094 Z M 244.347656 145.925781 L 221.5625 132.773438 L 221.5625 95.742188 L 244.347656 108.894531 Z M 221.984375 132.589844 L 243.925781 145.257812 L 243.925781 109.136719 L 221.984375 96.46875 Z M 271.378906 133.804688 L 258.046875 126.105469 L 258.046875 101.925781 L 271.378906 109.621094 Z M 258.46875 125.863281 L 271.015625 133.074219 L 271.015625 109.804688 L 258.46875 102.589844 Z M 271.378906 161.5625 L 258.046875 153.863281 L 258.046875 129.621094 L 271.378906 137.316406 Z M 258.46875 153.621094 L 271.015625 160.832031 L 271.015625 137.5625 L 258.46875 130.347656 Z M 289.195312 159.5 L 275.863281 151.804688 L 275.863281 127.621094 L 289.195312 135.316406 Z M 276.226562 151.621094 L 288.773438 158.832031 L 288.773438 135.5625 L 276.226562 128.347656 Z M 276.226562 151.621094 " fill-opacity="1" fill-rule="nonzero"/></g><path fill="#f6fed8" d="M 297.5625 209.5625 L 224.46875 251.742188 L 77.074219 166.710938 L 150.226562 124.46875 Z M 77.074219 197.863281 L 224.46875 282.953125 L 224.46875 251.925781 L 77.074219 166.832031 Z M 77.074219 197.863281 " fill-opacity="1" fill-rule="nonzero"/><g clip-path="url(#712817decb)"><path fill="#399d4e" d="M 151.195312 215.257812 L 219.804688 254.894531 L 219.804688 275.136719 L 151.195312 235.5 L 82.53125 195.925781 L 82.53125 175.683594 Z M 224.46875 251.925781 L 224.46875 282.953125 L 298.167969 240.410156 L 298.167969 209.378906 Z M 224.46875 251.925781 " fill-opacity="1" fill-rule="nonzero"/></g><g clip-path="url(#ed66809347)"><path fill="#3a5843" d="M 150.953125 235.621094 L 219.683594 275.316406 L 219.984375 275.5 L 219.984375 254.773438 L 151.378906 215.136719 L 82.347656 175.316406 L 82.347656 196.046875 Z M 151.378906 215.621094 L 169.195312 225.925781 L 170.710938 229.863281 L 200.347656 246.953125 L 201.863281 244.710938 L 219.683594 255.015625 L 219.683594 274.832031 L 151.4375 235.4375 L 151.4375 215.621094 Z M 82.773438 195.804688 L 82.773438 175.984375 L 100.589844 186.289062 L 102.046875 190.226562 L 131.683594 207.316406 L 133.195312 205.074219 L 151.015625 215.378906 L 151.015625 235.195312 Z M 297.742188 209.378906 L 150.347656 124.289062 L 150.226562 124.226562 L 76.953125 166.53125 L 76.894531 166.46875 L 76.894531 166.53125 L 76.710938 166.652344 L 76.894531 166.773438 L 76.894531 197.925781 L 224.226562 283.015625 L 224.226562 283.257812 L 224.410156 283.136719 L 224.589844 283.257812 L 224.589844 283.015625 L 298.167969 240.53125 L 298.289062 240.46875 L 298.289062 209.015625 Z M 224.226562 282.589844 L 77.257812 197.742188 L 77.257812 167.195312 L 224.226562 252.046875 Z M 224.46875 251.5625 L 77.5 166.710938 L 150.226562 124.710938 L 297.195312 209.5625 Z M 297.925781 240.289062 L 224.652344 282.589844 L 224.652344 252.046875 L 297.925781 209.742188 Z M 297.925781 240.289062 " fill-opacity="1" fill-rule="nonzero"/></g><path fill="#1f9230" d="M 243.804688 203.925781 L 243.804688 205.316406 L 224.589844 216.410156 L 212.226562 209.257812 L 212.226562 207.863281 M 234.773438 150.652344 L 234.773438 186.046875 C 234.773438 186.832031 234.53125 187.378906 234.105469 187.683594 L 234.167969 187.683594 C 233.925781 187.804688 232.832031 188.347656 232.832031 188.347656 C 232.710938 188.410156 232.589844 188.46875 232.410156 188.46875 C 232.53125 188.652344 232.589844 188.832031 232.589844 189.015625 L 232.589844 190.652344 C 232.589844 191.136719 232.289062 191.683594 231.5625 192.105469 L 200.894531 209.804688 C 200.226562 210.226562 199.316406 210.410156 198.46875 210.410156 C 197.742188 210.410156 197.074219 210.289062 196.589844 209.984375 L 147.5 181.621094 C 147.015625 181.316406 146.773438 180.953125 146.773438 180.589844 L 146.773438 178.953125 C 146.773438 178.46875 147.074219 177.925781 147.804688 177.5 L 147.984375 177.5 L 178.589844 159.804688 C 179.195312 159.4375 180.046875 159.257812 180.832031 159.257812 C 181.136719 159.257812 181.5 159.316406 181.742188 159.378906 C 180.953125 158.589844 180.410156 157.257812 180.410156 156.105469 L 180.410156 120.710938 C 180.410156 120.046875 180.589844 119.5 180.953125 119.195312 L 182.347656 118.46875 C 182.53125 118.347656 182.710938 118.347656 182.894531 118.347656 C 183.136719 118.347656 183.4375 118.410156 183.683594 118.589844 L 232.773438 146.953125 C 233.863281 147.4375 234.773438 149.195312 234.773438 150.652344 Z M 234.773438 150.652344 " fill-opacity="1" fill-rule="nonzero"/><path fill="#399d4e" d="M 232.410156 188.773438 C 232.410156 189.136719 232.105469 189.5 231.5625 189.804688 L 200.773438 207.5625 C 200.167969 207.925781 199.316406 208.105469 198.53125 208.105469 C 197.863281 208.105469 197.257812 207.984375 196.832031 207.742188 L 147.5 179.316406 C 147.136719 179.136719 146.953125 178.832031 146.953125 178.589844 C 146.953125 178.226562 147.257812 177.863281 147.804688 177.5625 L 178.589844 159.804688 C 179.195312 159.4375 180.046875 159.257812 180.832031 159.257812 C 181.5 159.257812 182.105469 159.378906 182.53125 159.621094 L 192.46875 165.378906 L 192.046875 165.621094 C 191.136719 166.167969 191.074219 166.894531 191.804688 167.378906 L 217.683594 182.289062 C 218.46875 182.710938 219.804688 182.652344 220.710938 182.167969 L 221.136719 181.925781 L 231.863281 188.105469 C 232.167969 188.226562 232.410156 188.53125 232.410156 188.773438 Z M 159.683594 138.710938 L 159.683594 143.074219 C 159.683594 144.589844 158.710938 145.984375 156.894531 147.015625 C 155.015625 148.105469 152.589844 148.589844 150.167969 148.589844 C 147.683594 148.589844 145.257812 148.046875 143.316406 146.953125 C 141.5 145.863281 140.46875 144.46875 140.46875 142.953125 L 140.46875 138.710938 " fill-opacity="1" fill-rule="nonzero"/><path fill="#1b221c" d="M 175.621094 136.894531 L 175.621094 150.832031 C 175.621094 151.863281 174.953125 152.773438 173.742188 153.5 C 172.46875 154.226562 170.832031 154.589844 169.195312 154.589844 C 167.5625 154.589844 165.863281 154.226562 164.589844 153.5 C 163.378906 152.773438 162.652344 151.804688 162.652344 150.832031 L 162.652344 136.894531 M 160.226562 94.953125 L 161.378906 108.410156 C 161.5 110.46875 160.410156 112.410156 158.347656 113.925781 C 156.167969 115.5 153.195312 116.289062 150.167969 116.289062 C 147.136719 116.289062 144.105469 115.5 141.925781 113.925781 C 139.804688 112.410156 138.710938 110.410156 138.832031 108.347656 L 139.984375 95.015625 " fill-opacity="1" fill-rule="nonzero"/><path fill="#f6fed8" d="M 173.683594 139.5625 C 171.195312 141.015625 167.136719 141.015625 164.589844 139.5625 C 162.046875 138.105469 162.046875 135.742188 164.53125 134.347656 C 167.015625 132.894531 171.074219 132.894531 173.621094 134.347656 C 176.167969 135.804688 176.226562 138.105469 173.683594 139.5625 Z M 156.773438 134.832031 C 153.015625 132.652344 147.015625 132.652344 143.316406 134.832031 C 139.621094 136.953125 139.621094 140.46875 143.378906 142.589844 C 147.136719 144.773438 153.136719 144.773438 156.832031 142.589844 C 160.53125 140.410156 160.53125 137.015625 156.773438 134.832031 Z M 156.953125 90.773438 C 153.074219 88.589844 146.953125 88.53125 143.074219 90.773438 C 139.136719 93.015625 138.894531 96.832031 142.773438 99.316406 C 146.773438 101.863281 153.4375 101.863281 157.378906 99.378906 C 161.257812 96.894531 160.953125 93.074219 156.953125 90.773438 Z M 243.804688 203.925781 L 231.4375 196.773438 L 212.226562 207.863281 L 224.589844 215.015625 Z M 184.53125 198.289062 L 167.074219 188.226562 L 177.621094 182.167969 L 195.074219 192.226562 Z M 231.621094 150.226562 L 182.347656 121.742188 L 182.347656 156.953125 L 231.621094 185.4375 Z M 231.621094 150.226562 " fill-opacity="1" fill-rule="nonzero"/><path fill="#3a5843" d="M 158.410156 114.046875 C 160.589844 112.53125 161.683594 110.46875 161.5625 108.347656 L 160.410156 94.894531 L 160.289062 94.894531 C 160.167969 93.257812 159.015625 91.742188 157.015625 90.589844 C 153.074219 88.347656 146.894531 88.347656 142.953125 90.589844 C 140.953125 91.742188 139.863281 93.257812 139.742188 94.894531 L 139.621094 94.894531 L 138.46875 108.226562 C 138.347656 110.410156 139.4375 112.410156 141.683594 113.984375 C 143.621094 115.378906 146.105469 116.167969 148.894531 116.347656 L 148.894531 133.015625 C 146.773438 133.136719 144.773438 133.683594 143.136719 134.589844 C 141.316406 135.683594 140.289062 137.074219 140.289062 138.652344 C 140.289062 138.652344 140.289062 138.652344 140.289062 138.710938 L 140.226562 138.710938 L 140.226562 142.953125 C 140.226562 144.53125 141.257812 145.984375 143.195312 147.136719 C 145.074219 148.226562 147.5 148.773438 150.105469 148.773438 C 152.710938 148.773438 155.136719 148.167969 156.953125 147.136719 C 158.832031 146.046875 159.863281 144.589844 159.863281 143.015625 L 159.863281 138.710938 L 159.804688 138.710938 C 159.804688 137.195312 158.773438 135.742188 156.894531 134.652344 C 155.316406 133.742188 153.257812 133.195312 151.195312 133.074219 L 151.195312 116.410156 C 153.925781 116.226562 156.46875 115.378906 158.410156 114.046875 Z M 143.195312 90.953125 C 145.074219 89.863281 147.5625 89.316406 149.984375 89.316406 C 152.46875 89.316406 154.953125 89.863281 156.894531 90.953125 C 158.832031 92.046875 159.925781 93.5625 159.984375 95.136719 C 160.046875 96.652344 159.074219 98.046875 157.316406 99.136719 C 153.4375 101.621094 146.832031 101.5625 142.894531 99.074219 C 141.136719 97.984375 140.167969 96.53125 140.226562 95.015625 C 140.226562 93.5 141.316406 92.046875 143.195312 90.953125 Z M 159.5 143.074219 C 159.5 144.46875 158.53125 145.804688 156.773438 146.832031 C 155.015625 147.863281 152.652344 148.410156 150.167969 148.410156 C 147.621094 148.410156 145.257812 147.863281 143.4375 146.832031 C 141.683594 145.804688 140.710938 144.46875 140.710938 143.015625 L 140.710938 140.167969 C 141.136719 141.136719 142.046875 142.046875 143.316406 142.773438 C 145.195312 143.863281 147.683594 144.410156 150.226562 144.410156 C 152.710938 144.410156 155.136719 143.863281 157.015625 142.773438 C 158.289062 142.046875 159.136719 141.136719 159.5625 140.167969 L 159.5625 143.074219 Z M 156.652344 135.015625 C 158.410156 136.046875 159.378906 137.378906 159.378906 138.773438 C 159.378906 140.167969 158.410156 141.4375 156.710938 142.46875 C 153.074219 144.589844 147.136719 144.589844 143.4375 142.46875 C 141.683594 141.4375 140.710938 140.105469 140.710938 138.710938 C 140.710938 137.316406 141.683594 136.046875 143.378906 135.015625 C 144.953125 134.105469 146.894531 133.621094 148.953125 133.5 L 148.953125 138.410156 C 148.953125 139.015625 149.4375 139.5 150.046875 139.5 C 150.652344 139.5 151.136719 139.015625 151.136719 138.410156 L 151.136719 133.5625 C 153.195312 133.621094 155.136719 134.105469 156.652344 135.015625 Z M 150.167969 116.046875 C 147.015625 116.046875 144.167969 115.195312 141.984375 113.683594 C 139.925781 112.226562 138.832031 110.289062 138.953125 108.289062 L 139.984375 96.347656 C 140.347656 97.5 141.257812 98.589844 142.652344 99.5 C 144.652344 100.773438 147.378906 101.4375 150.105469 101.4375 C 152.773438 101.4375 155.5 100.832031 157.5 99.5625 C 158.832031 98.710938 159.742188 97.621094 160.105469 96.46875 L 161.136719 108.410156 C 161.257812 110.410156 160.226562 112.289062 158.167969 113.742188 C 156.105469 115.195312 153.257812 116.046875 150.167969 116.046875 Z M 244.046875 205.4375 L 244.046875 204.046875 L 244.226562 203.925781 L 231.4375 196.53125 L 211.804688 207.863281 L 211.984375 207.984375 L 211.984375 209.378906 L 224.589844 216.652344 L 243.925781 205.5 Z M 228.953125 198.410156 L 240.953125 205.316406 L 224.589844 214.773438 L 212.589844 207.863281 Z M 224.589844 216.226562 L 212.410156 209.195312 L 212.410156 208.226562 L 224.589844 215.257812 L 243.621094 204.289062 L 243.621094 205.257812 Z M 174.289062 134.46875 L 175.5625 130.046875 C 175.742188 129.4375 175.378906 128.832031 174.773438 128.652344 C 174.167969 128.46875 173.5625 128.832031 173.378906 129.4375 L 172.226562 133.5 C 171.621094 133.316406 171.015625 133.195312 170.347656 133.136719 L 170.347656 129.4375 C 170.347656 129.4375 170.347656 129.5 170.347656 129.5 C 170.289062 128.410156 169.984375 127.316406 169.4375 126.347656 C 169.316406 126.167969 169.074219 126.167969 168.953125 126.347656 C 168.410156 127.316406 168.105469 128.410156 168.046875 129.5 C 168.046875 129.5 168.046875 129.4375 168.046875 129.4375 L 168.046875 133.136719 C 166.773438 133.257812 165.5625 133.621094 164.589844 134.167969 C 163.316406 134.894531 162.652344 135.863281 162.652344 136.953125 L 162.589844 136.953125 L 162.589844 150.894531 C 162.589844 151.984375 163.316406 153.015625 164.589844 153.742188 C 165.863281 154.46875 167.5 154.894531 169.316406 154.894531 C 171.074219 154.894531 172.710938 154.53125 173.984375 153.804688 C 175.257812 153.074219 175.984375 152.046875 175.984375 150.953125 L 175.984375 137.015625 L 175.925781 137.015625 C 175.742188 135.984375 175.257812 135.136719 174.289062 134.46875 Z M 174.167969 134.894531 C 174.953125 135.5 175.378906 136.226562 175.378906 136.953125 C 175.378906 137.863281 174.773438 138.710938 173.621094 139.378906 C 173.378906 139.5625 173.074219 139.683594 172.773438 139.804688 Z M 170.289062 133.5 C 170.894531 133.5625 171.5 133.683594 172.046875 133.863281 L 170.289062 140.105469 Z M 164.710938 134.46875 C 165.621094 133.925781 166.773438 133.621094 167.984375 133.5 L 167.984375 140.410156 C 166.773438 140.289062 165.683594 139.925781 164.710938 139.378906 C 163.5625 138.710938 162.894531 137.863281 162.894531 136.894531 C 162.953125 135.984375 163.5625 135.136719 164.710938 134.46875 Z M 175.4375 150.894531 C 175.4375 151.804688 174.832031 152.710938 173.621094 153.378906 C 172.46875 154.046875 170.894531 154.410156 169.195312 154.410156 C 167.5 154.410156 165.925781 154.046875 164.710938 153.316406 C 163.5625 152.652344 162.894531 151.742188 162.894531 150.832031 L 162.894531 138.167969 C 163.195312 138.773438 163.804688 139.257812 164.53125 139.742188 C 165.804688 140.46875 167.5 140.832031 169.195312 140.832031 C 170.894531 140.832031 172.53125 140.46875 173.804688 139.742188 C 174.53125 139.316406 175.074219 138.773438 175.4375 138.226562 Z M 251.316406 208.046875 L 231.683594 219.378906 L 231.378906 219.5625 C 231.378906 219.5625 231.4375 219.5 231.4375 219.5 C 230.46875 219.984375 229.4375 220.289062 228.347656 220.289062 C 228.167969 220.289062 227.984375 220.046875 228.105469 219.863281 C 228.652344 218.953125 229.378906 218.167969 230.347656 217.5625 C 230.347656 217.5625 230.289062 217.5625 230.289062 217.621094 L 230.589844 217.4375 L 250.226562 206.105469 C 250.773438 205.804688 251.4375 205.984375 251.804688 206.53125 C 252.167969 207.074219 251.863281 207.683594 251.316406 208.046875 Z M 207.257812 182.773438 L 209.925781 184.289062 L 207.316406 185.804688 L 204.652344 184.289062 Z M 191.378906 177.5625 L 194.046875 179.074219 L 191.4375 180.589844 L 188.773438 179.074219 Z M 176.773438 176.105469 L 179.378906 174.589844 L 182.046875 176.105469 L 179.4375 177.621094 Z M 184.710938 173.742188 L 187.378906 175.257812 L 184.773438 176.773438 L 182.105469 175.257812 Z M 188.046875 175.621094 L 190.710938 177.136719 L 188.105469 178.652344 L 185.4375 177.136719 Z M 192.046875 189.136719 L 177.015625 180.46875 L 179.925781 178.832031 L 194.953125 187.5 Z M 211.316406 192.105469 L 208.652344 190.589844 L 211.257812 189.074219 L 213.925781 190.589844 Z M 206.226562 193.074219 L 203.5625 191.5625 L 206.167969 190.046875 L 208.832031 191.5625 Z M 210.652344 184.710938 L 213.316406 186.226562 L 210.710938 187.742188 L 208.046875 186.226562 Z M 202.894531 191.195312 L 200.226562 189.621094 L 202.832031 188.105469 L 205.5 189.621094 Z M 199.5 189.257812 L 196.832031 187.742188 L 199.4375 186.226562 L 202.105469 187.742188 Z M 196.167969 187.316406 L 193.5 185.804688 L 196.105469 184.289062 L 198.773438 185.804688 Z M 181.378906 171.804688 L 184.046875 173.316406 L 181.4375 174.832031 L 178.773438 173.316406 Z M 207.984375 190.167969 L 205.316406 188.652344 L 207.925781 187.136719 L 210.589844 188.652344 Z M 204.652344 185.257812 L 207.316406 186.773438 L 204.710938 188.289062 L 202.046875 186.773438 Z M 176.347656 180.105469 L 172.953125 178.167969 L 175.863281 176.53125 L 179.257812 178.46875 Z M 172.289062 174.410156 L 175.195312 176.105469 L 172.289062 177.742188 L 169.378906 176.046875 Z M 213.984375 186.652344 L 216.652344 188.167969 L 214.046875 189.683594 L 211.378906 188.167969 Z M 217.378906 191.683594 L 214.710938 190.167969 L 217.316406 188.652344 L 219.984375 190.167969 Z M 201.316406 183.316406 L 203.984375 184.832031 L 201.378906 186.347656 L 198.710938 184.832031 Z M 189.5 183.4375 L 186.832031 181.925781 L 189.4375 180.410156 L 192.105469 181.925781 Z M 182.773438 176.53125 L 185.4375 178.046875 L 182.832031 179.5625 L 180.167969 178.046875 Z M 192.832031 185.378906 L 190.167969 183.863281 L 192.773438 182.347656 L 195.4375 183.863281 Z M 194.710938 179.5 L 197.378906 181.015625 L 194.773438 182.53125 L 192.105469 181.015625 Z M 197.984375 181.378906 L 200.652344 182.894531 L 198.046875 184.410156 L 195.378906 182.894531 Z M 186.105469 181.5 L 183.4375 179.984375 L 186.046875 178.46875 L 188.710938 179.984375 Z M 187.074219 171.136719 L 189.742188 172.652344 L 187.136719 174.167969 L 184.46875 172.652344 Z M 209.4375 192.046875 L 216.46875 196.105469 L 213.925781 197.5625 L 206.894531 193.5 Z M 220.710938 190.589844 L 223.378906 192.105469 L 220.773438 193.621094 L 218.105469 192.105469 Z M 210.226562 196.347656 L 213.136719 198.046875 L 210.226562 199.683594 L 207.316406 197.984375 Z M 202.53125 191.863281 L 199.621094 193.5 L 196.710938 191.804688 L 199.621094 190.167969 Z M 209.5625 195.984375 L 206.652344 197.621094 L 203.742188 195.925781 L 206.652344 194.289062 Z M 203.863281 180.832031 L 206.53125 182.347656 L 203.925781 183.863281 L 201.257812 182.347656 Z M 214.589844 191.015625 L 219.925781 194.105469 L 217.378906 195.5625 L 212.046875 192.46875 Z M 169.378906 171.863281 L 165.984375 169.925781 L 168.53125 168.46875 L 171.925781 170.410156 Z M 165.195312 173.683594 L 162.289062 171.984375 L 165.195312 170.347656 L 168.105469 172.046875 Z M 232.894531 146.652344 L 183.804688 118.289062 C 183.5 118.105469 183.195312 118.046875 182.894531 118.046875 C 182.652344 118.046875 182.46875 118.105469 182.289062 118.226562 L 180.832031 118.953125 C 180.410156 119.257812 180.226562 119.863281 180.226562 120.652344 L 180.226562 156.046875 C 180.226562 157.074219 180.652344 158.226562 181.257812 159.015625 C 181.136719 159.015625 180.953125 159.015625 180.832031 159.015625 C 179.984375 159.015625 179.136719 159.195312 178.46875 159.621094 L 147.683594 177.378906 C 147.074219 177.742188 146.710938 178.167969 146.710938 178.589844 C 146.710938 178.589844 146.710938 178.652344 146.710938 178.652344 C 146.710938 178.710938 146.710938 178.773438 146.710938 178.832031 L 146.710938 180.46875 C 146.710938 180.894531 146.953125 181.257812 147.4375 181.5 L 196.53125 209.863281 C 197.015625 210.167969 197.683594 210.289062 198.410156 210.289062 C 199.257812 210.289062 200.167969 210.105469 200.832031 209.683594 L 231.5 191.984375 C 232.226562 191.5625 232.589844 191.015625 232.53125 190.53125 L 232.53125 188.894531 C 232.53125 188.894531 232.53125 188.832031 232.53125 188.832031 C 232.53125 188.832031 232.53125 188.773438 232.53125 188.773438 C 232.53125 188.710938 232.53125 188.652344 232.46875 188.589844 C 232.589844 188.589844 232.710938 188.53125 232.832031 188.46875 C 232.832031 188.46875 234.105469 187.863281 234.105469 187.863281 C 234.589844 187.5625 234.894531 186.894531 234.894531 186.105469 L 234.894531 150.710938 C 234.953125 149.136719 234.046875 147.316406 232.894531 146.652344 Z M 147.984375 177.742188 L 178.652344 160.046875 C 179.257812 159.683594 180.046875 159.5 180.894531 159.5 C 181.195312 159.5 181.5625 159.5625 181.804688 159.621094 C 181.984375 159.804688 182.167969 159.925781 182.347656 159.984375 L 191.804688 165.4375 C 191.378906 165.742188 191.074219 166.105469 191.074219 166.53125 C 191.074219 166.894531 191.316406 167.257812 191.683594 167.4375 L 217.5625 182.347656 C 217.925781 182.589844 218.46875 182.652344 218.953125 182.652344 C 219.5625 182.652344 220.226562 182.46875 220.773438 182.167969 L 220.832031 182.105469 L 231.4375 188.226562 C 231.683594 188.347656 231.863281 188.410156 232.046875 188.46875 C 232.105469 188.53125 232.167969 188.652344 232.167969 188.773438 C 232.105469 189.015625 231.863281 189.316406 231.4375 189.5625 L 200.652344 207.316406 C 200.046875 207.683594 199.316406 207.863281 198.53125 207.863281 C 197.925781 207.863281 197.378906 207.742188 196.953125 207.5 L 147.621094 179.015625 C 147.5 178.953125 147.257812 178.773438 147.195312 178.589844 C 147.195312 178.347656 147.5 178.046875 147.984375 177.742188 Z M 192.105469 165.683594 L 192.167969 165.621094 L 220.410156 181.925781 C 219.5625 182.347656 218.410156 182.347656 217.742188 181.984375 L 191.863281 167.074219 C 191.683594 166.953125 191.4375 166.773438 191.4375 166.46875 C 191.4375 166.226562 191.683594 165.925781 192.105469 165.683594 Z M 182.289062 157.015625 L 182.289062 121.804688 L 231.5625 150.289062 L 231.5625 185.5 Z M 231.316406 191.621094 L 200.652344 209.316406 C 200.046875 209.683594 199.257812 209.863281 198.410156 209.863281 C 197.742188 209.863281 197.136719 209.742188 196.773438 209.5 L 147.683594 181.136719 C 147.4375 181.015625 147.136719 180.773438 147.136719 180.410156 L 147.136719 179.257812 C 147.195312 179.316406 147.257812 179.378906 147.378906 179.4375 L 196.710938 207.925781 C 197.136719 208.167969 197.804688 208.347656 198.46875 208.347656 C 199.316406 208.347656 200.167969 208.167969 200.832031 207.742188 L 231.621094 189.984375 C 231.863281 189.863281 232.046875 189.742188 232.167969 189.5625 L 232.167969 190.53125 C 232.226562 190.953125 231.863281 191.316406 231.316406 191.621094 Z M 234.589844 186.046875 C 234.589844 186.710938 234.410156 187.257812 233.984375 187.5 L 233.925781 187.5 C 233.621094 187.683594 233.378906 187.804688 233.195312 187.863281 C 233.378906 187.5625 233.5 187.195312 233.5 186.710938 L 233.5 151.316406 C 233.5 149.863281 232.589844 148.167969 231.5 147.5 L 182.410156 119.136719 C 182.226562 119.015625 181.984375 118.953125 181.804688 118.894531 L 182.46875 118.53125 C 182.589844 118.46875 182.710938 118.410156 182.894531 118.410156 C 183.136719 118.410156 183.316406 118.46875 183.5625 118.589844 L 232.652344 146.953125 C 233.683594 147.5625 234.53125 149.195312 234.53125 150.589844 L 234.53125 186.046875 Z M 177.015625 168.289062 L 172.894531 165.863281 L 175.4375 164.410156 L 179.5625 166.832031 Z M 224.167969 191.621094 L 176.226562 163.925781 L 178.410156 162.652344 L 226.347656 190.347656 Z M 174.832031 171.015625 L 169.5 167.925781 L 172.046875 166.46875 L 177.378906 169.5625 Z M 206.046875 193.925781 L 203.136719 195.5625 L 200.226562 193.863281 L 203.136719 192.226562 Z M 180.347656 167.257812 L 183.015625 168.773438 L 180.410156 170.289062 L 177.742188 168.773438 Z M 190.410156 173.074219 L 193.074219 174.589844 L 190.46875 176.105469 L 187.804688 174.589844 Z M 183.683594 169.195312 L 186.347656 170.710938 L 183.742188 172.226562 L 181.074219 170.710938 Z M 198.953125 189.863281 L 196.046875 191.5 L 192.652344 189.5625 L 195.5625 187.925781 Z M 197.136719 176.953125 L 199.804688 178.46875 L 197.195312 179.984375 L 194.53125 178.46875 Z M 200.53125 178.894531 L 203.195312 180.410156 L 200.589844 181.925781 L 197.925781 180.410156 Z M 193.804688 175.015625 L 196.46875 176.53125 L 193.863281 178.046875 L 191.195312 176.53125 Z M 166.710938 188.226562 L 184.53125 198.53125 L 195.5 192.226562 L 177.683594 181.925781 Z M 184.53125 198.046875 L 167.5 188.226562 L 177.621094 182.347656 L 194.652344 192.167969 Z M 168.773438 172.410156 L 171.683594 174.105469 L 168.773438 175.742188 L 165.863281 174.046875 Z M 173.4375 174.167969 L 176.046875 172.652344 L 178.710938 174.167969 L 176.105469 175.683594 Z M 175.4375 171.378906 L 178.046875 169.863281 L 180.710938 171.378906 L 178.105469 172.894531 Z M 172.710938 170.773438 L 175.378906 172.289062 L 172.773438 173.804688 L 170.105469 172.289062 Z M 172.710938 170.773438 " fill-opacity="1" fill-rule="nonzero"/></svg>